<?xml version="1.0" standalone="no"?>
<!DOCTYPE svg PUBLIC "-//W3C//DTD SVG 20010904//EN"
 "http://www.w3.org/TR/2001/REC-SVG-20010904/DTD/svg10.dtd">
<svg version="1.0" xmlns="http://www.w3.org/2000/svg"
 width="157.000000pt" height="76.000000pt" viewBox="0 0 157.000000 76.000000"
 preserveAspectRatio="xMidYMid meet">

<g transform="translate(0.000000,76.000000) scale(0.100000,-0.100000)"
fill="#000000" stroke="none">
<path d="M720 721 c0 -11 -8 -22 -17 -24 -10 -3 29 -5 87 -6 58 -1 139 -6 179
-11 82 -11 118 -29 61 -31 -19 -1 -26 -3 -15 -5 93 -20 312 -87 358 -111 16
-8 31 -12 34 -10 6 7 -148 97 -222 129 -82 36 -203 67 -310 78 -136 15 -155
13 -155 -9z"/>
<path d="M658 683 c7 -3 16 -2 19 1 4 3 -2 6 -13 5 -11 0 -14 -3 -6 -6z"/>
<path d="M161 383 c55 -82 59 -92 59 -145 0 -51 2 -58 20 -58 18 0 20 7 20 57
0 52 4 62 61 145 l60 88 -29 0 c-25 0 -36 -9 -68 -60 -22 -33 -41 -60 -44 -60
-3 0 -22 27 -43 60 -31 51 -41 60 -66 60 l-29 0 59 -87z"/>
<path d="M785 390 c-4 -6 -20 -8 -41 -4 -66 12 -124 -32 -124 -96 0 -59 35
-99 85 -100 63 0 95 -49 57 -83 -26 -24 -57 -21 -88 8 -54 50 -77 16 -25 -36
43 -43 121 -38 158 10 19 24 16 78 -5 99 -18 18 -18 19 0 42 19 24 25 95 8
105 -7 4 -7 12 0 25 11 21 -13 50 -25 30z m-25 -60 c11 -11 20 -31 20 -45 0
-26 -35 -65 -57 -65 -21 0 -63 47 -63 70 0 26 34 60 60 60 11 0 29 -9 40 -20z"/>
<path d="M925 383 c-30 -7 -46 -24 -62 -61 -18 -43 -2 -106 32 -128 33 -21 91
-20 116 2 17 16 19 16 19 1 0 -10 8 -17 20 -17 19 0 20 7 20 100 0 93 -1 100
-20 100 -11 0 -20 -5 -20 -10 0 -6 -13 -4 -30 5 -30 15 -40 16 -75 8z m85 -53
c48 -48 10 -116 -62 -111 -72 5 -56 131 17 131 14 0 34 -9 45 -20z"/>
<path d="M1198 375 c-16 -7 -28 -10 -28 -4 0 5 -9 9 -20 9 -19 0 -20 -7 -20
-100 0 -93 1 -100 20 -100 18 0 20 7 20 65 0 52 4 69 20 85 11 11 25 20 30 20
6 0 19 -9 30 -20 16 -16 20 -33 20 -85 0 -58 2 -65 20 -65 18 0 20 7 20 61 0
76 12 99 50 99 38 0 50 -23 50 -99 0 -55 2 -61 21 -61 20 0 21 4 18 79 -5 98
-21 121 -84 121 -26 0 -48 -6 -55 -15 -11 -13 -15 -14 -29 -1 -26 23 -54 27
-83 11z"/>
<path d="M372 305 c4 -61 9 -80 28 -100 27 -29 74 -33 107 -10 19 13 22 13 27
0 3 -8 12 -15 21 -15 12 0 15 17 15 100 0 93 -1 100 -20 100 -18 0 -20 -7 -20
-63 0 -71 -17 -97 -61 -97 -39 0 -49 18 -49 92 0 67 0 68 -26 68 l-27 0 5 -75z"/>
</g>
</svg>
